<mxfile host="app.diagrams.net" modified="2022-10-07T14:09:58.768Z" agent="5.0 (Macintosh; Intel Mac OS X 10_15_7) AppleWebKit/537.36 (KHTML, like Gecko) Chrome/105.0.0.0 Safari/537.36" etag="lXS5PAWRg12eO-m7S_CI" version="20.4.0" type="github" pages="2">
  <diagram id="7JhAGBCGNMpkyuO565MB" name="spring-security">
    <mxGraphModel dx="2755" dy="466" grid="1" gridSize="10" guides="1" tooltips="1" connect="1" arrows="1" fold="1" page="1" pageScale="1" pageWidth="850" pageHeight="1100" math="0" shadow="0">
      <root>
        <mxCell id="0" />
        <mxCell id="1" parent="0" />
        <mxCell id="2OhvPw83hctN9nR5Lysw-19" value="UserDetailsManager &amp;lt;&amp;lt;Interface&amp;gt;&amp;gt;" style="rounded=1;whiteSpace=wrap;html=1;fontStyle=1;fillColor=#e1d5e7;strokeColor=#9673a6;" parent="1" vertex="1">
          <mxGeometry x="-620" y="1110" width="130" height="40" as="geometry" />
        </mxCell>
        <mxCell id="2OhvPw83hctN9nR5Lysw-20" value="&lt;div style=&quot;&quot;&gt;&lt;span style=&quot;background-color: initial;&quot;&gt;&lt;sup style=&quot;&quot;&gt;UserDetailsService &amp;lt;&amp;lt;Interface&amp;gt;&amp;gt;&lt;/sup&gt;&lt;/span&gt;&lt;/div&gt;&lt;div style=&quot;&quot;&gt;&lt;span style=&quot;background-color: initial;&quot;&gt;&lt;sup&gt;&lt;br&gt;&lt;/sup&gt;&lt;/span&gt;&lt;/div&gt;&lt;div style=&quot;&quot;&gt;&lt;span style=&quot;background-color: initial;&quot;&gt;&lt;sup style=&quot;&quot;&gt;&lt;i style=&quot;&quot;&gt;UserDetails loadUserByUserName(String username)&lt;/i&gt;&lt;/sup&gt;&lt;/span&gt;&lt;/div&gt;" style="rounded=1;whiteSpace=wrap;html=1;fillColor=#e1d5e7;strokeColor=#9673a6;fontStyle=1;align=center;" parent="1" vertex="1">
          <mxGeometry x="-750" y="990" width="310" height="70" as="geometry" />
        </mxCell>
        <mxCell id="2OhvPw83hctN9nR5Lysw-22" value="&lt;b&gt;JdbcUserDetailsManager (Class)&lt;/b&gt;" style="rounded=1;whiteSpace=wrap;html=1;fillColor=#d5e8d4;strokeColor=#82b366;" parent="1" vertex="1">
          <mxGeometry x="-710" y="1240" width="160" height="60" as="geometry" />
        </mxCell>
        <mxCell id="pVIqleE_iX3nlFvVeCBg-13" style="edgeStyle=orthogonalEdgeStyle;rounded=0;orthogonalLoop=1;jettySize=auto;html=1;dashed=1;fontSize=13;" parent="1" source="2OhvPw83hctN9nR5Lysw-23" edge="1">
          <mxGeometry relative="1" as="geometry">
            <mxPoint x="-415" y="1140" as="targetPoint" />
            <Array as="points">
              <mxPoint x="-410" y="1140" />
            </Array>
          </mxGeometry>
        </mxCell>
        <mxCell id="2OhvPw83hctN9nR5Lysw-23" value="&lt;br&gt;&lt;p class=&quot;p1&quot;&gt;InMemoryUserDetailsManager (Class)&lt;/p&gt;&lt;br&gt;&lt;i&gt;&lt;font style=&quot;font-size: 13px;&quot;&gt;createUser(UserDetails user)&lt;/font&gt;&lt;/i&gt;&lt;br&gt;&amp;nbsp;" style="rounded=1;whiteSpace=wrap;html=1;fillColor=#d5e8d4;strokeColor=#82b366;fontStyle=1;align=center;verticalAlign=middle;" parent="1" vertex="1">
          <mxGeometry x="-520" y="1240" width="210" height="120" as="geometry" />
        </mxCell>
        <mxCell id="2OhvPw83hctN9nR5Lysw-24" style="edgeStyle=orthogonalEdgeStyle;rounded=0;orthogonalLoop=1;jettySize=auto;html=1;exitX=0.5;exitY=1;exitDx=0;exitDy=0;" parent="1" source="2OhvPw83hctN9nR5Lysw-23" target="2OhvPw83hctN9nR5Lysw-23" edge="1">
          <mxGeometry relative="1" as="geometry" />
        </mxCell>
        <mxCell id="2OhvPw83hctN9nR5Lysw-30" value="" style="endArrow=none;html=1;rounded=0;" parent="1" edge="1">
          <mxGeometry width="50" height="50" relative="1" as="geometry">
            <mxPoint x="-520" y="1310" as="sourcePoint" />
            <mxPoint x="-310" y="1310" as="targetPoint" />
          </mxGeometry>
        </mxCell>
        <mxCell id="2OhvPw83hctN9nR5Lysw-37" value="" style="endArrow=none;html=1;rounded=0;fontSize=13;entryX=0.997;entryY=0.407;entryDx=0;entryDy=0;entryPerimeter=0;" parent="1" target="2OhvPw83hctN9nR5Lysw-20" edge="1">
          <mxGeometry width="50" height="50" relative="1" as="geometry">
            <mxPoint x="-750" y="1020" as="sourcePoint" />
            <mxPoint x="-700" y="970" as="targetPoint" />
          </mxGeometry>
        </mxCell>
        <mxCell id="pVIqleE_iX3nlFvVeCBg-1" value="«interface»&lt;br&gt;&lt;b&gt;AuthenticationProvider&lt;/b&gt;" style="html=1;fontSize=13;fillColor=#e1d5e7;strokeColor=#9673a6;" parent="1" vertex="1">
          <mxGeometry x="-305" y="690" width="150" height="50" as="geometry" />
        </mxCell>
        <mxCell id="pVIqleE_iX3nlFvVeCBg-2" value="AbstractUserDetailsAuthenticationProvider" style="swimlane;fontStyle=1;align=center;verticalAlign=top;childLayout=stackLayout;horizontal=1;startSize=26;horizontalStack=0;resizeParent=1;resizeParentMax=0;resizeLast=0;collapsible=1;marginBottom=0;fontSize=13;fillColor=#f8cecc;strokeColor=#b85450;" parent="1" vertex="1">
          <mxGeometry x="-380" y="780" width="310" height="100" as="geometry">
            <mxRectangle x="370" y="40" width="110" height="30" as="alternateBounds" />
          </mxGeometry>
        </mxCell>
        <mxCell id="pVIqleE_iX3nlFvVeCBg-4" value="" style="line;strokeWidth=1;fillColor=none;align=left;verticalAlign=middle;spacingTop=-1;spacingLeft=3;spacingRight=3;rotatable=0;labelPosition=right;points=[];portConstraint=eastwest;fontSize=13;" parent="pVIqleE_iX3nlFvVeCBg-2" vertex="1">
          <mxGeometry y="26" width="310" height="8" as="geometry" />
        </mxCell>
        <object label="+ retriveUser(String username, UsernamePasswordAuthenticationToken authentication): UserDetails" id="pVIqleE_iX3nlFvVeCBg-5">
          <mxCell style="text;strokeColor=#b85450;fillColor=#f8cecc;align=left;verticalAlign=top;spacingLeft=4;spacingRight=4;overflow=hidden;rotatable=0;points=[[0,0.5],[1,0.5]];portConstraint=eastwest;fontSize=13;fontStyle=2;whiteSpace=wrap;" parent="pVIqleE_iX3nlFvVeCBg-2" vertex="1">
            <mxGeometry y="34" width="310" height="66" as="geometry" />
          </mxCell>
        </object>
        <mxCell id="pVIqleE_iX3nlFvVeCBg-6" value="" style="endArrow=open;endSize=12;dashed=1;html=1;rounded=0;fontSize=13;entryX=0.367;entryY=0.99;entryDx=0;entryDy=0;entryPerimeter=0;exitX=0.42;exitY=0;exitDx=0;exitDy=0;exitPerimeter=0;" parent="1" source="pVIqleE_iX3nlFvVeCBg-2" target="pVIqleE_iX3nlFvVeCBg-1" edge="1">
          <mxGeometry width="160" relative="1" as="geometry">
            <mxPoint x="-250" y="820" as="sourcePoint" />
            <mxPoint x="-90" y="820" as="targetPoint" />
            <Array as="points">
              <mxPoint x="-250" y="760" />
            </Array>
          </mxGeometry>
        </mxCell>
        <mxCell id="pVIqleE_iX3nlFvVeCBg-8" value="&lt;p style=&quot;margin: 4px 0px 0px;&quot;&gt;&lt;b&gt;Class&lt;/b&gt;&lt;/p&gt;&lt;hr size=&quot;1&quot;&gt;&lt;div style=&quot;height:2px;&quot;&gt;&lt;p style=&quot;margin: 0px; font-variant-numeric: normal; font-variant-east-asian: normal; font-stretch: normal; font-size: 16px; line-height: normal; font-family: Menlo;&quot; class=&quot;p1&quot;&gt;&lt;b&gt;DaoAuthenticationProvider&lt;/b&gt;&lt;/p&gt;&lt;/div&gt;" style="verticalAlign=top;align=center;overflow=fill;fontSize=12;fontFamily=Helvetica;html=1;fillColor=#d5e8d4;strokeColor=#82b366;" parent="1" vertex="1">
          <mxGeometry x="-360" y="950" width="250" height="60" as="geometry" />
        </mxCell>
        <mxCell id="pVIqleE_iX3nlFvVeCBg-10" value="" style="endArrow=block;dashed=1;endFill=0;endSize=12;html=1;rounded=0;fontSize=13;exitX=0.5;exitY=0;exitDx=0;exitDy=0;entryX=0.629;entryY=1;entryDx=0;entryDy=0;entryPerimeter=0;" parent="1" source="2OhvPw83hctN9nR5Lysw-19" target="2OhvPw83hctN9nR5Lysw-20" edge="1">
          <mxGeometry width="160" relative="1" as="geometry">
            <mxPoint x="-560" y="1090" as="sourcePoint" />
            <mxPoint x="-400" y="1090" as="targetPoint" />
          </mxGeometry>
        </mxCell>
        <mxCell id="pVIqleE_iX3nlFvVeCBg-11" value="" style="endArrow=block;dashed=1;endFill=0;endSize=12;html=1;rounded=0;fontSize=13;exitX=0.5;exitY=0;exitDx=0;exitDy=0;entryX=0.077;entryY=0.988;entryDx=0;entryDy=0;entryPerimeter=0;" parent="1" target="2OhvPw83hctN9nR5Lysw-19" edge="1">
          <mxGeometry width="160" relative="1" as="geometry">
            <mxPoint x="-609.99" y="1240" as="sourcePoint" />
            <mxPoint x="-610" y="1190" as="targetPoint" />
          </mxGeometry>
        </mxCell>
        <mxCell id="pVIqleE_iX3nlFvVeCBg-12" value="" style="endArrow=block;dashed=1;endFill=0;endSize=12;html=1;rounded=0;fontSize=13;entryX=1;entryY=0.75;entryDx=0;entryDy=0;" parent="1" target="2OhvPw83hctN9nR5Lysw-19" edge="1">
          <mxGeometry width="160" relative="1" as="geometry">
            <mxPoint x="-410" y="1140" as="sourcePoint" />
            <mxPoint x="-440" y="1140" as="targetPoint" />
            <Array as="points">
              <mxPoint x="-420" y="1140" />
            </Array>
          </mxGeometry>
        </mxCell>
        <mxCell id="NDV7WUPV6Lxd4Veiv8BD-41" value="Extends" style="endArrow=block;endSize=16;endFill=0;html=1;rounded=0;dashed=1;fontSize=13;" parent="1" edge="1">
          <mxGeometry width="160" relative="1" as="geometry">
            <mxPoint x="-235.5" y="950" as="sourcePoint" />
            <mxPoint x="-235.5" y="880" as="targetPoint" />
          </mxGeometry>
        </mxCell>
        <mxCell id="Zhe5iEd3yz5-mfW3sKlQ-1" value="UserDetails &amp;lt;&amp;lt;Interface&amp;gt;&amp;gt;" style="rounded=1;whiteSpace=wrap;html=1;fontStyle=1;align=center;fillColor=#e1d5e7;strokeColor=#9673a6;" parent="1" vertex="1">
          <mxGeometry x="10" y="1170" width="90" height="40" as="geometry" />
        </mxCell>
        <mxCell id="Zhe5iEd3yz5-mfW3sKlQ-2" value="&lt;b&gt;Users (Class)&lt;/b&gt;" style="rounded=1;whiteSpace=wrap;html=1;fillColor=#d5e8d4;strokeColor=#82b366;" parent="1" vertex="1">
          <mxGeometry x="-130" y="1250" width="70" height="30" as="geometry" />
        </mxCell>
        <mxCell id="Zhe5iEd3yz5-mfW3sKlQ-3" value="&lt;b&gt;MutableUserDetails &amp;lt;&amp;lt;Inteface&amp;gt;&amp;gt;&lt;/b&gt;" style="rounded=1;whiteSpace=wrap;html=1;fillColor=#e1d5e7;strokeColor=#9673a6;" parent="1" vertex="1">
          <mxGeometry x="-5" y="1250" width="120" height="40" as="geometry" />
        </mxCell>
        <mxCell id="Zhe5iEd3yz5-mfW3sKlQ-4" value="Token &amp;lt;&amp;lt;Interface&amp;gt;&amp;gt;" style="rounded=1;whiteSpace=wrap;html=1;fontStyle=1;fillColor=#e1d5e7;strokeColor=#9673a6;" parent="1" vertex="1">
          <mxGeometry x="170" y="1245" width="90" height="35" as="geometry" />
        </mxCell>
        <mxCell id="Zhe5iEd3yz5-mfW3sKlQ-5" value="CredentialsContainer &amp;lt;&amp;lt;Interface&amp;gt;&amp;gt;" style="rounded=1;whiteSpace=wrap;html=1;fontStyle=1;fillColor=#e1d5e7;strokeColor=#9673a6;" parent="1" vertex="1">
          <mxGeometry x="-260" y="1110" width="130" height="60" as="geometry" />
        </mxCell>
        <mxCell id="Zhe5iEd3yz5-mfW3sKlQ-6" value="" style="endArrow=block;dashed=1;endFill=0;endSize=12;html=1;rounded=0;fontSize=13;exitX=0;exitY=0.5;exitDx=0;exitDy=0;" parent="1" source="Zhe5iEd3yz5-mfW3sKlQ-2" edge="1">
          <mxGeometry width="160" relative="1" as="geometry">
            <mxPoint x="-195" y="1260" as="sourcePoint" />
            <mxPoint x="-195.5" y="1170" as="targetPoint" />
            <Array as="points">
              <mxPoint x="-195" y="1265" />
            </Array>
          </mxGeometry>
        </mxCell>
        <mxCell id="Zhe5iEd3yz5-mfW3sKlQ-7" value="" style="endArrow=block;dashed=1;endFill=0;endSize=12;html=1;rounded=0;fontSize=13;exitX=0.414;exitY=-0.067;exitDx=0;exitDy=0;exitPerimeter=0;" parent="1" source="Zhe5iEd3yz5-mfW3sKlQ-2" edge="1">
          <mxGeometry width="160" relative="1" as="geometry">
            <mxPoint x="-150" y="1189.5" as="sourcePoint" />
            <mxPoint x="10" y="1189.5" as="targetPoint" />
            <Array as="points">
              <mxPoint x="-101" y="1190" />
            </Array>
          </mxGeometry>
        </mxCell>
        <mxCell id="Zhe5iEd3yz5-mfW3sKlQ-8" value="" style="endArrow=block;dashed=1;endFill=0;endSize=12;html=1;rounded=0;fontSize=13;entryX=0.5;entryY=1;entryDx=0;entryDy=0;" parent="1" target="Zhe5iEd3yz5-mfW3sKlQ-1" edge="1">
          <mxGeometry width="160" relative="1" as="geometry">
            <mxPoint x="54.5" y="1250" as="sourcePoint" />
            <mxPoint x="54.5" y="1220" as="targetPoint" />
          </mxGeometry>
        </mxCell>
        <mxCell id="Zhe5iEd3yz5-mfW3sKlQ-9" value="" style="endArrow=block;dashed=1;endFill=0;endSize=12;html=1;rounded=0;fontSize=13;exitX=0.5;exitY=0;exitDx=0;exitDy=0;entryX=1;entryY=0.5;entryDx=0;entryDy=0;" parent="1" source="Zhe5iEd3yz5-mfW3sKlQ-4" target="Zhe5iEd3yz5-mfW3sKlQ-1" edge="1">
          <mxGeometry width="160" relative="1" as="geometry">
            <mxPoint x="220" y="1220" as="sourcePoint" />
            <mxPoint x="380" y="1220" as="targetPoint" />
            <Array as="points">
              <mxPoint x="215" y="1190" />
            </Array>
          </mxGeometry>
        </mxCell>
        <mxCell id="Zhe5iEd3yz5-mfW3sKlQ-10" value="Use" style="endArrow=open;endSize=12;dashed=1;html=1;rounded=0;exitX=0.448;exitY=-0.043;exitDx=0;exitDy=0;exitPerimeter=0;" parent="1" source="2OhvPw83hctN9nR5Lysw-20" edge="1">
          <mxGeometry width="160" relative="1" as="geometry">
            <mxPoint x="-520" y="960" as="sourcePoint" />
            <mxPoint x="-360" y="960" as="targetPoint" />
            <Array as="points">
              <mxPoint x="-610" y="960" />
            </Array>
          </mxGeometry>
        </mxCell>
        <mxCell id="Zhe5iEd3yz5-mfW3sKlQ-11" value="Use" style="endArrow=open;dashed=0;html=1;rounded=0;entryX=0.378;entryY=-0.05;entryDx=0;entryDy=0;entryPerimeter=0;shape=flexArrow;exitX=0.75;exitY=0;exitDx=0;exitDy=0;" parent="1" source="2OhvPw83hctN9nR5Lysw-23" target="Zhe5iEd3yz5-mfW3sKlQ-1" edge="1">
          <mxGeometry width="160" relative="1" as="geometry">
            <mxPoint x="-310" y="1310" as="sourcePoint" />
            <mxPoint x="-150" y="1310" as="targetPoint" />
            <Array as="points">
              <mxPoint x="-360" y="1080" />
              <mxPoint x="-280" y="1080" />
              <mxPoint x="44" y="1080" />
            </Array>
          </mxGeometry>
        </mxCell>
        <mxCell id="Zhe5iEd3yz5-mfW3sKlQ-12" value="«interface»&lt;br&gt;&lt;b&gt;AuthenticatioManager&lt;/b&gt;" style="html=1;fillColor=#e1d5e7;strokeColor=#9673a6;" parent="1" vertex="1">
          <mxGeometry x="-610" y="670" width="140" height="50" as="geometry" />
        </mxCell>
        <mxCell id="Zhe5iEd3yz5-mfW3sKlQ-13" value="&lt;p style=&quot;margin: 4px 0px 0px;&quot;&gt;&lt;b&gt;Class&lt;/b&gt;&lt;/p&gt;&lt;hr size=&quot;1&quot;&gt;&lt;div style=&quot;height:2px;&quot;&gt;&lt;p style=&quot;margin: 0px; font-variant-numeric: normal; font-variant-east-asian: normal; font-stretch: normal; font-size: 16px; line-height: normal; font-family: Menlo;&quot; class=&quot;p1&quot;&gt;&lt;b&gt;ProviderManager&lt;/b&gt;&lt;/p&gt;&lt;/div&gt;" style="verticalAlign=top;align=center;overflow=fill;fontSize=12;fontFamily=Helvetica;html=1;fillColor=#d5e8d4;strokeColor=#82b366;" parent="1" vertex="1">
          <mxGeometry x="-620" y="810" width="150" height="60" as="geometry" />
        </mxCell>
        <mxCell id="Zhe5iEd3yz5-mfW3sKlQ-18" value="" style="endArrow=block;dashed=1;endFill=0;endSize=12;html=1;rounded=0;fontSize=13;exitX=0.5;exitY=0;exitDx=0;exitDy=0;entryX=0.077;entryY=0.988;entryDx=0;entryDy=0;entryPerimeter=0;" parent="1" edge="1">
          <mxGeometry width="160" relative="1" as="geometry">
            <mxPoint x="-545.59" y="810.48" as="sourcePoint" />
            <mxPoint x="-545.59" y="720.0000000000002" as="targetPoint" />
          </mxGeometry>
        </mxCell>
        <mxCell id="Zhe5iEd3yz5-mfW3sKlQ-20" value="Use" style="endArrow=open;dashed=0;html=1;rounded=0;shape=flexArrow;" parent="1" edge="1">
          <mxGeometry width="160" relative="1" as="geometry">
            <mxPoint x="-470" y="700" as="sourcePoint" />
            <mxPoint x="-305" y="700" as="targetPoint" />
            <Array as="points" />
          </mxGeometry>
        </mxCell>
        <mxCell id="Zhe5iEd3yz5-mfW3sKlQ-21" value="&lt;p style=&quot;margin: 4px 0px 0px;&quot;&gt;&lt;b&gt;Class&lt;/b&gt;&lt;/p&gt;&lt;hr size=&quot;1&quot;&gt;&lt;div style=&quot;height:2px;&quot;&gt;&lt;b&gt;AuthenticationFilter&lt;/b&gt;&lt;/div&gt;" style="verticalAlign=top;align=center;overflow=fill;fontSize=12;fontFamily=Helvetica;html=1;fillColor=#d5e8d4;strokeColor=#82b366;" parent="1" vertex="1">
          <mxGeometry x="-860" y="670" width="120" height="50" as="geometry" />
        </mxCell>
        <mxCell id="Zhe5iEd3yz5-mfW3sKlQ-22" value="Use" style="endArrow=open;dashed=0;html=1;rounded=0;shape=flexArrow;exitX=0.847;exitY=1.03;exitDx=0;exitDy=0;exitPerimeter=0;" parent="1" source="Zhe5iEd3yz5-mfW3sKlQ-21" edge="1">
          <mxGeometry width="160" relative="1" as="geometry">
            <mxPoint x="-750" y="839.41" as="sourcePoint" />
            <mxPoint x="-620" y="839.41" as="targetPoint" />
            <Array as="points">
              <mxPoint x="-760" y="840" />
            </Array>
          </mxGeometry>
        </mxCell>
        <mxCell id="Zhe5iEd3yz5-mfW3sKlQ-23" value="«interface»&lt;br&gt;&lt;b&gt;Authentication&lt;/b&gt;" style="html=1;fillColor=#e1d5e7;strokeColor=#9673a6;" parent="1" vertex="1">
          <mxGeometry x="-910" y="870" width="110" height="50" as="geometry" />
        </mxCell>
        <mxCell id="Zhe5iEd3yz5-mfW3sKlQ-24" value="«interface»&lt;br&gt;&lt;b&gt;Principal&lt;/b&gt;" style="html=1;fillColor=#e1d5e7;strokeColor=#9673a6;" parent="1" vertex="1">
          <mxGeometry x="-900" y="750" width="70" height="50" as="geometry" />
        </mxCell>
        <mxCell id="Zhe5iEd3yz5-mfW3sKlQ-26" value="Extends" style="endArrow=block;endSize=16;endFill=0;html=1;rounded=0;dashed=1;fontSize=13;" parent="1" edge="1">
          <mxGeometry width="160" relative="1" as="geometry">
            <mxPoint x="-870" y="870" as="sourcePoint" />
            <mxPoint x="-870" y="800" as="targetPoint" />
          </mxGeometry>
        </mxCell>
        <object label="Use" id="Zhe5iEd3yz5-mfW3sKlQ-27">
          <mxCell style="endArrow=open;dashed=0;html=1;rounded=0;shape=flexArrow;exitX=0;exitY=0.5;exitDx=0;exitDy=0;" parent="1" source="Zhe5iEd3yz5-mfW3sKlQ-23" edge="1">
            <mxGeometry width="160" relative="1" as="geometry">
              <mxPoint x="-960" y="820" as="sourcePoint" />
              <mxPoint x="-860" y="700" as="targetPoint" />
              <Array as="points">
                <mxPoint x="-960" y="895" />
                <mxPoint x="-960" y="700" />
              </Array>
            </mxGeometry>
          </mxCell>
        </object>
        <mxCell id="Zhe5iEd3yz5-mfW3sKlQ-28" value="&lt;i&gt;Create authentication object in the runtime&lt;/i&gt;" style="text;html=1;strokeColor=none;fillColor=none;align=center;verticalAlign=middle;whiteSpace=wrap;rounded=0;" parent="1" vertex="1">
          <mxGeometry x="-1050" y="760" width="80" height="90" as="geometry" />
        </mxCell>
        <mxCell id="Zhe5iEd3yz5-mfW3sKlQ-29" value="&lt;p style=&quot;margin: 4px 0px 0px;&quot;&gt;&lt;b&gt;Class&lt;/b&gt;&lt;/p&gt;&lt;hr size=&quot;1&quot;&gt;&lt;div style=&quot;height:2px;&quot;&gt;&lt;p style=&quot;margin: 0px; font-variant-numeric: normal; font-variant-east-asian: normal; font-stretch: normal; font-size: 16px; line-height: normal; font-family: Menlo;&quot; class=&quot;p1&quot;&gt;&lt;b&gt;UsernamePasswordAuthenticationToken&lt;/b&gt;&lt;/p&gt;&lt;/div&gt;" style="verticalAlign=top;align=center;overflow=fill;fontSize=12;fontFamily=Helvetica;html=1;fillColor=#d5e8d4;strokeColor=#82b366;" parent="1" vertex="1">
          <mxGeometry x="-1120" y="1110" width="350" height="60" as="geometry" />
        </mxCell>
        <mxCell id="Zhe5iEd3yz5-mfW3sKlQ-30" value="AbstractAuthenticationToken" style="swimlane;fontStyle=1;align=center;verticalAlign=top;childLayout=stackLayout;horizontal=1;startSize=26;horizontalStack=0;resizeParent=1;resizeParentMax=0;resizeLast=0;collapsible=1;marginBottom=0;fontSize=13;fillColor=#f8cecc;strokeColor=#b85450;" parent="1" vertex="1">
          <mxGeometry x="-1080" y="1010" width="310" height="34" as="geometry">
            <mxRectangle x="370" y="40" width="110" height="30" as="alternateBounds" />
          </mxGeometry>
        </mxCell>
        <mxCell id="Zhe5iEd3yz5-mfW3sKlQ-31" value="" style="line;strokeWidth=1;fillColor=none;align=left;verticalAlign=middle;spacingTop=-1;spacingLeft=3;spacingRight=3;rotatable=0;labelPosition=right;points=[];portConstraint=eastwest;fontSize=13;" parent="Zhe5iEd3yz5-mfW3sKlQ-30" vertex="1">
          <mxGeometry y="26" width="310" height="8" as="geometry" />
        </mxCell>
        <mxCell id="Zhe5iEd3yz5-mfW3sKlQ-33" value="Extends" style="endArrow=block;endSize=16;endFill=0;html=1;rounded=0;dashed=1;fontSize=13;" parent="1" edge="1">
          <mxGeometry width="160" relative="1" as="geometry">
            <mxPoint x="-925.59" y="1110" as="sourcePoint" />
            <mxPoint x="-925.59" y="1040" as="targetPoint" />
          </mxGeometry>
        </mxCell>
        <mxCell id="Zhe5iEd3yz5-mfW3sKlQ-35" value="" style="endArrow=block;dashed=1;endFill=0;endSize=12;html=1;rounded=0;fontSize=13;exitX=0.5;exitY=0;exitDx=0;exitDy=0;entryX=0.077;entryY=0.988;entryDx=0;entryDy=0;entryPerimeter=0;" parent="1" edge="1">
          <mxGeometry width="160" relative="1" as="geometry">
            <mxPoint x="-890.0000000000007" y="1010.0000000000002" as="sourcePoint" />
            <mxPoint x="-890.0000000000007" y="919.5200000000002" as="targetPoint" />
          </mxGeometry>
        </mxCell>
      </root>
    </mxGraphModel>
  </diagram>
  <diagram id="fzzftBX0nAXGpxNLrdaH" name="spring-security-flowchart">
    <mxGraphModel dx="1267" dy="500" grid="1" gridSize="10" guides="1" tooltips="1" connect="1" arrows="1" fold="1" page="1" pageScale="1" pageWidth="850" pageHeight="1100" math="0" shadow="0">
      <root>
        <mxCell id="0" />
        <mxCell id="1" parent="0" />
        <mxCell id="FdNULJnpuu7iGeKT-yt0-1" value="" style="shape=actor;whiteSpace=wrap;html=1;fillColor=#0050ef;fontColor=#ffffff;strokeColor=#001DBC;" vertex="1" parent="1">
          <mxGeometry x="50" y="160" width="40" height="60" as="geometry" />
        </mxCell>
        <mxCell id="FdNULJnpuu7iGeKT-yt0-2" value="Spring Filter" style="strokeWidth=2;html=1;shape=mxgraph.flowchart.terminator;whiteSpace=wrap;fillColor=#e1d5e7;strokeColor=#9673a6;" vertex="1" parent="1">
          <mxGeometry x="210" y="160" width="100" height="60" as="geometry" />
        </mxCell>
        <mxCell id="FdNULJnpuu7iGeKT-yt0-3" value="Authentication Manager" style="strokeWidth=2;html=1;shape=mxgraph.flowchart.terminator;whiteSpace=wrap;fillColor=#e1d5e7;strokeColor=#9673a6;" vertex="1" parent="1">
          <mxGeometry x="430" y="160" width="100" height="60" as="geometry" />
        </mxCell>
        <mxCell id="FdNULJnpuu7iGeKT-yt0-4" value="Authentication Provider" style="strokeWidth=2;html=1;shape=mxgraph.flowchart.terminator;whiteSpace=wrap;fillColor=#e1d5e7;strokeColor=#9673a6;" vertex="1" parent="1">
          <mxGeometry x="650" y="160" width="100" height="60" as="geometry" />
        </mxCell>
        <mxCell id="FdNULJnpuu7iGeKT-yt0-5" value="User Details Service" style="strokeWidth=2;html=1;shape=mxgraph.flowchart.terminator;whiteSpace=wrap;fillColor=#e1d5e7;strokeColor=#9673a6;" vertex="1" parent="1">
          <mxGeometry x="580" y="280" width="110" height="60" as="geometry" />
        </mxCell>
        <mxCell id="FdNULJnpuu7iGeKT-yt0-6" value="Password Encoder" style="strokeWidth=2;html=1;shape=mxgraph.flowchart.terminator;whiteSpace=wrap;fillColor=#e1d5e7;strokeColor=#9673a6;" vertex="1" parent="1">
          <mxGeometry x="720" y="280" width="100" height="60" as="geometry" />
        </mxCell>
        <mxCell id="FdNULJnpuu7iGeKT-yt0-7" value="Security Context Holder" style="strokeWidth=2;html=1;shape=mxgraph.flowchart.terminator;whiteSpace=wrap;fillColor=#e1d5e7;strokeColor=#9673a6;" vertex="1" parent="1">
          <mxGeometry x="210" y="310" width="100" height="60" as="geometry" />
        </mxCell>
        <mxCell id="FdNULJnpuu7iGeKT-yt0-8" value="Authentication Object" style="strokeWidth=2;html=1;shape=mxgraph.flowchart.terminator;whiteSpace=wrap;fillColor=#e1d5e7;strokeColor=#9673a6;" vertex="1" parent="1">
          <mxGeometry x="210" y="10" width="100" height="60" as="geometry" />
        </mxCell>
        <mxCell id="FdNULJnpuu7iGeKT-yt0-9" value="" style="verticalLabelPosition=bottom;verticalAlign=top;html=1;strokeWidth=2;shape=mxgraph.arrows2.arrow;dy=0.6;dx=40;notch=0;fillColor=#d5e8d4;strokeColor=#82b366;" vertex="1" parent="1">
          <mxGeometry x="90" y="180" width="120" height="20" as="geometry" />
        </mxCell>
        <mxCell id="FdNULJnpuu7iGeKT-yt0-10" value="" style="verticalLabelPosition=bottom;verticalAlign=top;html=1;strokeWidth=2;shape=mxgraph.arrows2.arrow;dy=0.6;dx=40;notch=0;fillColor=#d5e8d4;strokeColor=#82b366;" vertex="1" parent="1">
          <mxGeometry x="310" y="170" width="120" height="20" as="geometry" />
        </mxCell>
        <mxCell id="FdNULJnpuu7iGeKT-yt0-11" value="" style="verticalLabelPosition=bottom;verticalAlign=top;html=1;strokeWidth=2;shape=mxgraph.arrows2.arrow;dy=0.6;dx=40;notch=0;fillColor=#d5e8d4;strokeColor=#82b366;" vertex="1" parent="1">
          <mxGeometry x="530" y="170" width="120" height="20" as="geometry" />
        </mxCell>
        <mxCell id="FdNULJnpuu7iGeKT-yt0-12" value="" style="verticalLabelPosition=bottom;verticalAlign=top;html=1;strokeWidth=2;shape=mxgraph.arrows2.arrow;dy=0.6;dx=40;notch=0;direction=west;fillColor=#f8cecc;strokeColor=#b85450;" vertex="1" parent="1">
          <mxGeometry x="530" y="190" width="120" height="20" as="geometry" />
        </mxCell>
        <mxCell id="FdNULJnpuu7iGeKT-yt0-13" value="" style="verticalLabelPosition=bottom;verticalAlign=top;html=1;strokeWidth=2;shape=mxgraph.arrows2.arrow;dy=0.6;dx=40;notch=0;direction=west;fillColor=#f8cecc;strokeColor=#b85450;" vertex="1" parent="1">
          <mxGeometry x="310" y="190" width="120" height="20" as="geometry" />
        </mxCell>
        <mxCell id="FdNULJnpuu7iGeKT-yt0-14" value="" style="verticalLabelPosition=bottom;verticalAlign=top;html=1;strokeWidth=2;shape=mxgraph.arrows2.arrow;dy=0.6;dx=40;notch=0;direction=west;fillColor=#f8cecc;strokeColor=#b85450;" vertex="1" parent="1">
          <mxGeometry x="90" y="200" width="120" height="20" as="geometry" />
        </mxCell>
        <mxCell id="FdNULJnpuu7iGeKT-yt0-15" value="" style="verticalLabelPosition=bottom;verticalAlign=top;html=1;strokeWidth=2;shape=mxgraph.arrows2.arrow;dy=0.6;dx=40;notch=0;direction=north;" vertex="1" parent="1">
          <mxGeometry x="250" y="70" width="20" height="90" as="geometry" />
        </mxCell>
        <mxCell id="FdNULJnpuu7iGeKT-yt0-16" value="" style="verticalLabelPosition=bottom;verticalAlign=top;html=1;strokeWidth=2;shape=mxgraph.arrows2.arrow;dy=0.6;dx=40;notch=0;direction=south;strokeColor=#000000;" vertex="1" parent="1">
          <mxGeometry x="250" y="220" width="20" height="90" as="geometry" />
        </mxCell>
        <mxCell id="FdNULJnpuu7iGeKT-yt0-17" value="" style="shape=flexArrow;endArrow=classic;html=1;rounded=0;exitX=0.192;exitY=0.988;exitDx=0;exitDy=0;exitPerimeter=0;entryX=0.5;entryY=0;entryDx=0;entryDy=0;entryPerimeter=0;" edge="1" parent="1" source="FdNULJnpuu7iGeKT-yt0-4" target="FdNULJnpuu7iGeKT-yt0-5">
          <mxGeometry width="50" height="50" relative="1" as="geometry">
            <mxPoint x="540" y="370" as="sourcePoint" />
            <mxPoint x="480" y="260" as="targetPoint" />
            <Array as="points">
              <mxPoint x="635" y="220" />
            </Array>
          </mxGeometry>
        </mxCell>
        <mxCell id="FdNULJnpuu7iGeKT-yt0-18" value="" style="shape=flexArrow;endArrow=classic;html=1;rounded=0;entryX=0.5;entryY=0;entryDx=0;entryDy=0;entryPerimeter=0;" edge="1" parent="1">
          <mxGeometry width="50" height="50" relative="1" as="geometry">
            <mxPoint x="730" y="219.28" as="sourcePoint" />
            <mxPoint x="760" y="280" as="targetPoint" />
            <Array as="points">
              <mxPoint x="760" y="220" />
            </Array>
          </mxGeometry>
        </mxCell>
      </root>
    </mxGraphModel>
  </diagram>
</mxfile>
